<?xml version="1.0" standalone="no"?>
<!DOCTYPE svg PUBLIC "-//W3C//DTD SVG 20010904//EN"
 "http://www.w3.org/TR/2001/REC-SVG-20010904/DTD/svg10.dtd">
<svg version="1.0" xmlns="http://www.w3.org/2000/svg"
 width="204.000000pt" height="313.000000pt" viewBox="0 0 204.000000 313.000000"
 preserveAspectRatio="xMidYMid meet">

<g transform="translate(0.000000,313.000000) scale(0.100000,-0.100000)"
fill="#000000" stroke="none">
<path d="M817 2596 c-3 -10 -79 -17 -217 -21 -93 -2 -95 -3 -112 -31 -10 -16
-23 -29 -30 -30 -16 -1 -35 -9 -110 -43 -54 -24 -59 -29 -73 -77 -13 -44 -22
-56 -67 -85 -29 -19 -60 -48 -70 -65 -23 -39 -37 -154 -43 -344 -6 -206 -7
-201 3 -214 5 -6 12 -26 16 -44 3 -19 12 -48 20 -65 7 -18 33 -77 56 -132 23
-55 46 -110 52 -122 14 -28 9 -33 -45 -53 -48 -18 -58 -42 -29 -73 11 -12 44
-74 75 -139 70 -148 78 -154 207 -151 52 0 119 8 148 16 28 8 52 10 52 6 0
-15 19 -10 39 10 11 11 22 17 25 13 5 -5 7 1 6 23 0 3 9 15 21 28 24 25 44 69
66 139 15 51 35 68 81 68 24 0 32 -6 43 -32 7 -17 39 -58 70 -90 31 -32 54
-58 51 -58 -4 0 5 -8 18 -17 42 -30 60 -47 60 -59 0 -22 -37 -44 -76 -44 -32
0 -50 -9 -94 -45 -42 -35 -63 -45 -90 -45 -20 0 -40 4 -45 9 -19 17 -104 20
-117 4 -9 -11 -9 -16 3 -24 8 -5 20 -7 27 -4 6 2 12 0 12 -5 0 -4 -14 -11 -31
-15 -17 -4 -33 -13 -36 -21 -3 -8 -13 -14 -23 -14 -10 0 -23 -7 -30 -15 -7 -8
-26 -19 -43 -23 -26 -7 -31 -13 -34 -48 -3 -31 1 -45 17 -59 17 -16 24 -17 40
-7 18 11 23 7 51 -30 17 -24 33 -55 36 -70 3 -16 9 -28 14 -28 5 0 9 -6 9 -13
0 -18 29 -43 60 -52 14 -4 30 -15 36 -23 9 -12 12 -12 26 2 19 18 38 21 38 5
0 -18 113 -2 128 18 12 16 9 18 -32 21 -26 2 -46 7 -46 13 0 5 -17 9 -37 9
-45 0 -142 25 -156 39 -16 16 13 14 53 -3 24 -10 38 -10 56 -2 35 16 29 29
-10 22 -34 -7 -57 5 -69 36 -4 9 -10 8 -21 -6 -22 -27 -37 -10 -43 47 -6 51 8
68 36 43 22 -20 26 -20 58 1 38 25 92 43 131 43 18 0 42 5 52 10 11 6 47 12
80 13 40 1 60 6 60 15 0 21 48 14 55 -8 6 -20 25 -28 25 -11 0 5 16 9 35 8 38
-1 43 -8 20 -31 -8 -8 -15 -20 -15 -26 0 -7 12 3 28 20 15 18 40 48 55 66 16
18 26 38 22 44 -11 18 27 11 41 -7 11 -17 13 -16 19 8 11 44 -33 109 -74 109
-5 0 -11 -11 -13 -24 -3 -24 -4 -24 -40 -11 -37 12 -38 12 -38 -10 0 -26 25
-52 35 -35 3 5 4 14 1 19 -4 5 3 7 14 4 11 -3 25 -13 30 -23 8 -15 3 -18 -43
-24 -29 -3 -68 -6 -87 -6 -20 0 -76 -14 -125 -32 -76 -27 -102 -31 -170 -30
-85 2 -192 -13 -213 -30 -7 -6 -15 -8 -18 -5 -10 9 16 47 32 47 8 0 17 6 20
14 3 8 15 11 29 8 19 -3 27 2 36 21 13 28 42 46 37 22 -2 -7 1 -13 7 -12 5 1
9 9 7 17 -2 12 7 15 35 15 27 0 53 11 88 34 29 19 51 29 53 22 2 -6 8 -11 14
-11 13 0 38 26 38 41 0 9 3 9 15 -1 12 -10 20 -8 44 12 30 24 44 61 34 96 -4
17 0 22 23 27 103 21 205 50 238 69 38 21 67 63 80 119 4 15 11 25 16 22 6 -3
11 4 12 17 1 13 2 30 4 38 1 8 2 32 3 53 1 40 26 53 38 20 4 -10 12 -22 20
-26 7 -4 13 -15 13 -22 0 -8 5 -15 10 -15 6 0 10 -9 10 -20 0 -11 3 -20 8 -20
16 0 32 -58 32 -117 0 -61 1 -63 25 -63 27 0 35 -24 10 -34 -20 -7 -19 -32 2
-40 32 -13 46 18 45 96 -1 40 -6 89 -12 108 -14 47 -13 60 4 54 11 -4 13 0 9
18 -6 22 -5 22 14 5 22 -19 33 -14 33 16 0 10 9 21 20 24 24 6 26 19 5 27 -9
3 -20 -3 -27 -14 -7 -11 -21 -20 -31 -20 -10 0 -15 5 -12 10 4 6 1 17 -5 25
-23 28 -2 86 48 138 35 35 42 47 28 47 -15 0 -17 5 -12 33 4 17 11 73 17 122
5 50 13 108 17 130 9 49 -2 165 -21 220 -8 22 -20 60 -27 84 -17 63 -159 204
-252 250 -37 19 -69 38 -70 43 -2 5 -12 11 -23 13 -11 2 -22 4 -24 4 -2 1 2 7
8 15 10 11 8 16 -7 20 -22 7 -52 -2 -52 -15 0 -5 -9 -9 -20 -9 -11 0 -20 7
-20 15 0 8 6 15 13 15 8 0 7 3 -3 10 -9 6 -17 5 -21 -2 -4 -6 -14 -3 -27 10
-11 11 -47 28 -79 38 -32 9 -89 28 -128 42 -56 21 -89 26 -167 27 -54 0 -99
-4 -101 -9z m-21 -723 c21 -28 17 -36 -13 -28 -53 13 -72 45 -27 45 15 0 33
-8 40 -17z m-96 -3 c0 -5 -5 -10 -11 -10 -5 0 -7 5 -4 10 3 6 8 10 11 10 2 0
4 -4 4 -10z m-143 -19 c7 -1 10 -7 8 -13 -3 -8 4 -14 19 -14 14 -1 38 -12 53
-24 15 -12 42 -27 58 -34 31 -13 102 -10 120 4 6 5 60 9 120 10 125 2 145 6
145 25 0 8 18 20 40 26 31 10 43 9 55 -1 9 -7 14 -19 11 -25 -2 -7 1 -18 7
-24 16 -16 57 -14 57 3 0 7 6 19 14 25 18 15 86 4 86 -14 0 -20 38 -48 58 -43
15 4 18 1 14 -18 -3 -18 3 -27 29 -43 19 -11 39 -24 44 -29 6 -4 19 -13 29
-19 24 -13 50 -93 36 -107 -7 -7 -10 -5 -10 4 0 9 -5 7 -14 -6 -10 -13 -11
-23 -4 -31 5 -7 8 -20 5 -30 -3 -14 -7 -10 -17 15 -9 25 -18 32 -39 32 -16 0
-42 7 -59 16 -29 14 -35 14 -62 1 -16 -9 -32 -11 -35 -7 -3 5 -25 9 -48 9 -23
-1 -46 0 -52 2 -5 2 -31 -2 -57 -9 -27 -6 -69 -17 -95 -24 -65 -16 -129 -54
-159 -93 -44 -58 -124 -71 -197 -33 -35 18 -63 23 -159 26 -109 4 -118 3 -134
-17 -21 -24 -39 -28 -30 -6 5 13 1 13 -26 -1 -42 -22 -48 -9 -41 93 6 81 -3
125 -31 145 -16 11 16 99 49 134 24 25 41 34 64 34 19 0 34 6 37 15 4 8 12 15
19 15 6 0 20 9 29 19 10 10 25 18 34 16 9 -2 22 -4 29 -4z m228 -51 c3 -5 -3
-10 -14 -10 -12 0 -21 5 -21 10 0 6 6 10 14 10 8 0 18 -4 21 -10z m625 -15 c0
-8 -4 -15 -10 -15 -5 0 -10 7 -10 15 0 8 5 15 10 15 6 0 10 -7 10 -15z m84
-296 c17 -15 -1 -21 -25 -8 -16 8 -56 10 -133 6 -109 -5 -110 -5 -46 7 68 13
188 10 204 -5z m-281 -73 c24 -19 21 -26 -12 -26 -31 0 -47 13 -36 30 8 14 26
12 48 -4z m185 -2 c27 -6 30 -9 21 -26 -8 -15 -14 -17 -24 -8 -22 18 -75 30
-75 17 0 -7 -4 -6 -10 3 -6 10 -10 11 -10 3 0 -7 -12 -13 -27 -13 -26 0 -26 1
-7 15 20 15 80 19 132 9z m72 -75 c17 -118 -3 -191 -63 -228 -69 -43 -254 -73
-318 -52 -36 12 -89 84 -89 121 0 10 -5 22 -12 26 -6 4 12 13 43 21 36 9 55
10 57 3 4 -12 59 -12 87 0 17 7 16 9 -10 10 l-30 1 35 15 c19 8 71 22 115 31
44 9 87 22 97 30 9 8 25 16 35 17 14 2 19 13 21 46 5 59 21 39 32 -41z m-620
-10 c0 -6 -4 -7 -10 -4 -5 3 -10 11 -10 16 0 6 5 7 10 4 6 -3 10 -11 10 -16z
m130 -9 c0 -5 -4 -10 -10 -10 -5 0 -10 5 -10 10 0 6 5 10 10 10 6 0 10 -4 10
-10z m-400 -40 c0 -15 -7 -20 -25 -20 -23 0 -24 2 -13 20 7 11 18 20 25 20 7
0 13 -9 13 -20z m90 5 c0 -8 -2 -15 -4 -15 -2 0 -6 7 -10 15 -3 8 -1 15 4 15
6 0 10 -7 10 -15z m65 -152 c-17 -143 -83 -191 -275 -200 -83 -4 -99 -2 -127
16 -35 22 -64 63 -41 59 24 -5 20 50 -7 98 -31 56 -28 79 10 62 14 -6 25 -15
25 -20 0 -4 5 -8 12 -8 6 0 19 -6 27 -14 9 -7 42 -16 74 -20 52 -6 58 -4 55
11 -2 15 7 19 47 24 74 9 169 31 180 40 21 20 26 6 20 -48z m-466 -83 c11 -24
11 -24 -3 -6 -9 11 -16 24 -16 30 0 12 5 7 19 -24z m531 -240 c0 -5 -2 -10 -4
-10 -3 0 -8 5 -11 10 -3 6 -1 10 4 10 6 0 11 -4 11 -10z"/>
<path d="M1290 1760 c-13 -9 -13 -10 0 -9 8 1 26 5 40 9 l25 8 -25 1 c-14 0
-32 -4 -40 -9z"/>
<path d="M553 1116 c-46 -14 -41 -28 10 -24 28 2 42 8 42 17 0 19 -13 20 -52
7z"/>
<path d="M1600 2444 c31 -40 90 -96 90 -86 0 15 -58 80 -84 94 -20 11 -20 10
-6 -8z"/>
<path d="M1800 1195 c0 -10 -6 -26 -14 -34 -7 -9 -17 -27 -21 -40 -11 -35 16
-22 37 18 9 18 24 39 35 47 10 9 12 13 5 9 -7 -4 -19 -1 -27 5 -12 10 -15 9
-15 -5z"/>
<path d="M1675 910 c-3 -5 -1 -10 4 -10 6 0 11 5 11 10 0 6 -2 10 -4 10 -3 0
-8 -4 -11 -10z"/>
<path d="M1675 851 c2 -5 -4 -39 -15 -77 -11 -38 -18 -76 -15 -85 4 -10 -4
-23 -20 -33 -14 -9 -25 -25 -25 -35 0 -20 -33 -55 -43 -44 -4 3 -7 -9 -7 -27
0 -23 -12 -49 -39 -84 -56 -74 -96 -116 -109 -116 -7 0 -12 -4 -12 -9 0 -5
-24 -21 -54 -35 -30 -15 -59 -33 -65 -40 -7 -8 -19 -12 -29 -9 -22 5 -130 -23
-150 -39 -9 -8 -46 -13 -96 -13 -45 0 -87 -5 -95 -10 -10 -5 -16 -4 -19 3 -2
7 -11 12 -19 12 -9 0 -22 8 -29 18 -11 14 -16 15 -33 5 -12 -7 -32 -13 -46
-13 -36 0 -25 -13 43 -51 55 -32 60 -32 169 -32 99 1 124 5 210 34 54 18 117
47 141 63 24 17 70 49 102 71 64 45 145 133 175 191 11 22 30 55 42 74 31 47
60 143 66 217 4 54 3 62 -14 66 -10 3 -17 2 -14 -2z"/>
<path d="M1090 830 c0 -5 5 -10 10 -10 6 0 10 5 10 10 0 6 -4 10 -10 10 -5 0
-10 -4 -10 -10z"/>
<path d="M1356 751 c-4 -5 -2 -12 3 -15 5 -4 12 -2 15 3 4 5 2 12 -3 15 -5 4
-12 2 -15 -3z"/>
<path d="M1186 607 c-8 -30 1 -34 25 -10 21 20 21 20 1 25 -15 4 -22 0 -26
-15z"/>
<path d="M1110 520 c0 -21 8 -24 34 -14 25 10 19 34 -9 34 -18 0 -25 -5 -25
-20z"/>
<path d="M1080 500 c0 -5 5 -10 10 -10 6 0 10 5 10 10 0 6 -4 10 -10 10 -5 0
-10 -4 -10 -10z"/>
<path d="M700 240 c0 -5 4 -10 9 -10 6 0 13 5 16 10 3 6 -1 10 -9 10 -9 0 -16
-4 -16 -10z"/>
</g>
</svg>
